<?xml version="1.0" encoding="UTF-8"?>
<svg version="1.1" xmlns="http://www.w3.org/2000/svg" width="16" height="16">
<path d="M0 0 C5.28 0 10.56 0 16 0 C16 5.28 16 10.56 16 16 C10.72 16 5.44 16 0 16 C0 10.72 0 5.44 0 0 Z " fill="#CB141D" transform="translate(0,0)"/>
<path d="M0 0 C5.28 0 10.56 0 16 0 C15.67 0.99 15.34 1.98 15 3 C14.175 3 13.35 3 12.5 3 C7.89701807 4.31513769 5.82808869 6.82631912 2.63671875 10.28515625 C1.82654297 11.13400391 1.82654297 11.13400391 1 12 C0.67 12 0.34 12 0 12 C0 8.04 0 4.08 0 0 Z " fill="#000000" transform="translate(0,0)"/>
<path d="M0 0 C0.66 0.33 1.32 0.66 2 1 C0.68 3.31 -0.64 5.62 -2 8 C-0.68 8.33 0.64 8.66 2 9 C2.33 8.34 2.66 7.68 3 7 C3 7.66 3 8.32 3 9 C3.66 9 4.32 9 5 9 C5 9.66 5 10.32 5 11 C-0.28 11 -5.56 11 -11 11 C-11 10.34 -11 9.68 -11 9 C-10.113125 8.814375 -9.22625 8.62875 -8.3125 8.4375 C-3.81181978 6.48437462 -2.58730301 4.10924596 0 0 Z " fill="#000000" transform="translate(11,5)"/>
</svg>
